<svg width="18" height="18" viewBox="0 0 18 18" fill="none" xmlns="http://www.w3.org/2000/svg">
<path d="M18 18H0V0H18V18Z" stroke="#E5E7EB"/>
<path d="M0.13717 1.93008C0.369201 1.43789 0.861389 1.125 1.40631 1.125H16.5938C17.1387 1.125 17.6309 1.43789 17.863 1.93008C18.095 2.42227 18.0247 3.00234 17.6801 3.42422L11.2501 11.2816V15.75C11.2501 16.1754 11.011 16.5656 10.6278 16.7555C10.2446 16.9453 9.79108 16.9066 9.45006 16.65L7.20006 14.9625C6.91529 14.7516 6.75006 14.4176 6.75006 14.0625V11.2816L0.316467 3.4207C-0.024549 3.00234 -0.0983771 2.41875 0.13717 1.93008Z" fill="#155FA0"/>
</svg>
