<svg width="15" height="16" viewBox="0 0 15 16" fill="none" xmlns="http://www.w3.org/2000/svg">
<g clip-path="url(#clip0_7_714)">
<path d="M7.95312 8C9.01399 8 10.0314 7.57857 10.7816 6.82843C11.5317 6.07828 11.9531 5.06087 11.9531 4C11.9531 2.93913 11.5317 1.92172 10.7816 1.17157C10.0314 0.421427 9.01399 0 7.95312 0C6.89226 0 5.87484 0.421427 5.1247 1.17157C4.37455 1.92172 3.95312 2.93913 3.95312 4C3.95312 5.06087 4.37455 6.07828 5.1247 6.82843C5.87484 7.57857 6.89226 8 7.95312 8ZM6.525 9.5C3.44688 9.5 0.953125 11.9937 0.953125 15.0719C0.953125 15.5844 1.36875 16 1.88125 16H14.025C14.5375 16 14.9531 15.5844 14.9531 15.0719C14.9531 11.9937 12.4594 9.5 9.38125 9.5H6.525Z" fill="#2563EB"/>
</g>
<defs>
<clipPath id="clip0_7_714">
<path d="M0.953125 0H14.9531V16H0.953125V0Z" fill="white"/>
</clipPath>
</defs>
</svg>
