<svg width="15" height="16" viewBox="0 0 15 16" fill="none" xmlns="http://www.w3.org/2000/svg">
<g clip-path="url(#clip0_7_708)">
<path d="M7.14062 8C6.07976 8 5.06234 7.57857 4.3122 6.82843C3.56205 6.07828 3.14062 5.06087 3.14062 4C3.14062 2.93913 3.56205 1.92172 4.3122 1.17157C5.06234 0.421427 6.07976 0 7.14062 0C8.20149 0 9.21891 0.421427 9.96905 1.17157C10.7192 1.92172 11.1406 2.93913 11.1406 4C11.1406 5.06087 10.7192 6.07828 9.96905 6.82843C9.21891 7.57857 8.20149 8 7.14062 8ZM6.675 11.225L6.09375 10.2563C5.89375 9.92188 6.13438 9.5 6.52187 9.5H7.14062H7.75625C8.14375 9.5 8.38437 9.925 8.18437 10.2563L7.60313 11.225L8.64688 15.0969L9.77188 10.5063C9.83438 10.2531 10.0781 10.0875 10.3313 10.1531C12.5219 10.7031 14.1406 12.6844 14.1406 15.0406C14.1406 15.5719 13.7094 16 13.1812 16H9.0625C8.99687 16 8.9375 15.9875 8.88125 15.9656L8.89062 16H5.39062L5.4 15.9656C5.34375 15.9875 5.28125 16 5.21875 16H1.1C0.571875 16 0.140625 15.5687 0.140625 15.0406C0.140625 12.6812 1.7625 10.7 3.95 10.1531C4.20312 10.0906 4.44688 10.2563 4.50938 10.5063L5.63438 15.0969L6.67812 11.225H6.675Z" fill="white"/>
</g>
<defs>
<clipPath id="clip0_7_708">
<path d="M0.140625 0H14.1406V16H0.140625V0Z" fill="white"/>
</clipPath>
</defs>
</svg>
